<svg width="150" height="150" viewBox="0 0 150 150" fill="none" xmlns="http://www.w3.org/2000/svg">
<path d="M65.8326 21.0355C69.3219 13.0289 80.6779 13.029 84.1672 21.0355L93.4432 42.3206C94.9185 45.7057 98.139 48.0023 101.82 48.2942L121.686 49.8696C130.648 50.5802 134.194 61.833 127.259 67.5528L112.235 79.9444C109.33 82.3405 108.017 86.1653 108.839 89.8402L113.913 112.544C115.843 121.177 106.437 127.88 98.9065 123.238L80.2475 111.735C77.0302 109.752 72.9695 109.752 69.7522 111.735L51.0935 123.237C43.5632 127.88 34.157 121.177 36.0867 112.544L41.161 89.8426C41.9824 86.1677 40.6698 82.343 37.765 79.9469L22.7392 67.5527C15.8048 61.8327 19.351 50.5803 28.3119 49.8697L48.1797 48.2942C51.8607 48.0023 55.0813 45.7057 56.5565 42.3206L65.8326 21.0355Z" fill="#A0522D"/>
<path d="M75 42.5C92.9493 42.5 107.5 57.0507 107.5 75C107.5 92.9493 92.9493 107.5 75 107.5C57.0507 107.5 42.5 92.9493 42.5 75C42.5 57.0507 57.0507 42.5 75 42.5Z" fill="white" stroke="black" stroke-width="5"/>
</svg>
